<?xml version="1.0" encoding="UTF-8" standalone="no"?>
<!-- Created with Inkscape (http://www.inkscape.org/) -->

<svg
   xmlns:dc="http://purl.org/dc/elements/1.1/"
   xmlns:cc="http://creativecommons.org/ns#"
   xmlns:rdf="http://www.w3.org/1999/02/22-rdf-syntax-ns#"
   xmlns:svg="http://www.w3.org/2000/svg"
   xmlns="http://www.w3.org/2000/svg"
   xmlns:sodipodi="http://sodipodi.sourceforge.net/DTD/sodipodi-0.dtd"
   xmlns:inkscape="http://www.inkscape.org/namespaces/inkscape"
   id="svg2"
   version="1.1"
   inkscape:version="0.91 r13725"
   xml:space="preserve"
   width="126.25"
   height="123.75"
   viewBox="0 0 126.25 123.75"
   sodipodi:docname="ic_github.svg"><metadata
     id="metadata8"><rdf:RDF><cc:Work
         rdf:about=""><dc:format>image/svg+xml</dc:format><dc:type
           rdf:resource="http://purl.org/dc/dcmitype/StillImage" /><dc:title></dc:title></cc:Work></rdf:RDF></metadata><defs
     id="defs6" /><sodipodi:namedview
     pagecolor="#ffffff"
     bordercolor="#666666"
     borderopacity="1"
     objecttolerance="10"
     gridtolerance="10"
     guidetolerance="10"
     inkscape:pageopacity="0"
     inkscape:pageshadow="2"
     inkscape:window-width="640"
     inkscape:window-height="480"
     id="namedview4"
     showgrid="false"
     inkscape:zoom="1.9070707"
     inkscape:cx="63.125"
     inkscape:cy="61.875"
     inkscape:window-x="0"
     inkscape:window-y="27"
     inkscape:window-maximized="0"
     inkscape:current-layer="g10" /><g
     id="g10"
     inkscape:groupmode="layer"
     inkscape:label="ink_ext_XXXXXX"
     transform="matrix(1.25,0,0,-1.25,0,123.75)"><g
       id="g12"
       transform="scale(0.1,0.1)"><path
         d="m 934.02,737.379 c -44.758,76.68 -105.5,137.391 -182.18,182.152 -76.719,44.77 -160.43,67.149 -251.25,67.149 -90.82,0 -174.57,-22.379 -251.289,-67.149 C 172.621,874.77 111.91,814.059 67.1484,737.379 22.3789,660.66 0,576.91 0,486.09 0,377.031 31.8398,278.949 95.4688,191.84 159.141,104.73 241.371,44.4102 342.191,10.9805 c 11.719,-2.19144 20.43,-0.6719 26.047,4.5312 5.672,5.2266 8.481,11.7578 8.481,19.5664 0,1.293 -0.117,13.0117 -0.309,35.1914 -0.238,22.1524 -0.359,41.4925 -0.359,58.0115 L 361.09,125.66 c -9.57,-1.75 -21.641,-2.5 -36.168,-2.262 -14.57,0.192 -29.692,1.723 -45.313,4.571 -15.66,2.812 -30.199,9.301 -43.668,19.531 -13.48,10.199 -23.011,23.551 -28.671,40.078 l -6.532,15 c -4.328,10 -11.168,21.051 -20.508,33.242 -9.371,12.149 -18.82,20.43 -28.351,24.77 l -4.578,3.238 c -3.039,2.192 -5.852,4.801 -8.473,7.852 -2.617,3.011 -4.566,6.05 -5.859,9.101 -1.289,3.047 -0.239,5.547 3.242,7.5 3.48,1.989 9.809,2.93 18.91,2.93 l 13.039,-1.949 c 8.68,-1.723 19.461,-6.961 32.27,-15.633 12.808,-8.707 23.359,-20 31.601,-33.899 10,-17.82 22.028,-31.371 36.168,-40.75 14.141,-9.332 28.36,-13.98 42.699,-13.98 14.332,0 26.723,1.09 37.153,3.238 10.429,2.192 20.187,5.434 29.328,9.774 3.91,29.136 14.57,51.519 31.922,67.148 -24.77,2.61 -47.031,6.52 -66.801,11.75 -19.77,5.199 -40.199,13.68 -61.25,25.43 -21.09,11.719 -38.59,26.289 -52.5,43.64 -13.871,17.379 -25.309,40.231 -34.18,68.43 -8.91,28.289 -13.359,60.86 -13.359,97.781 0,52.579 17.148,97.34 51.488,134.289 -16.097,39.54 -14.578,83.829 4.571,132.93 12.57,3.949 31.281,0.981 56.05,-8.789 24.77,-9.762 42.891,-18.16 54.41,-25.07 11.532,-6.961 20.75,-12.852 27.7,-17.621 40.429,11.289 82.148,16.949 125.16,16.949 43,0 84.719,-5.66 125.148,-16.949 l 24.774,15.66 c 16.91,10.43 36.91,19.961 59.957,28.68 23.011,8.671 40.621,11.05 52.812,7.14 19.528,-49.101 21.289,-93.39 5.199,-132.961 34.329,-36.918 51.481,-81.679 51.481,-134.258 0,-36.921 -4.449,-69.613 -13.359,-98.089 -8.903,-28.481 -20.391,-51.293 -34.532,-68.442 -14.14,-17.18 -31.718,-31.601 -52.808,-43.359 -21.063,-11.711 -41.492,-20.192 -61.25,-25.391 -19.774,-5.23 -42.032,-9.14 -66.801,-11.75 22.578,-19.57 33.867,-50.39 33.867,-92.539 l 0,-137.5429 c 0,-7.8086 2.731,-14.3398 8.16,-19.5273 5.434,-5.1992 13.992,-6.76174 25.742,-4.5703 100.821,33.4687 183.051,93.7495 246.68,180.8985 63.68,87.101 95.51,185.191 95.51,294.25 -0.04,90.781 -22.42,174.531 -67.15,251.25 z"
         style="fill:#209bd4;fill-opacity:1;fill-rule:nonzero;stroke:none"
         id="path14"
         inkscape:connector-curvature="0" /></g></g></svg>