<?xml version="1.0" encoding="UTF-8" standalone="no"?>
<!-- Created with Inkscape (http://www.inkscape.org/) -->

<svg
   xmlns:dc="http://purl.org/dc/elements/1.1/"
   xmlns:cc="http://creativecommons.org/ns#"
   xmlns:rdf="http://www.w3.org/1999/02/22-rdf-syntax-ns#"
   xmlns:svg="http://www.w3.org/2000/svg"
   xmlns="http://www.w3.org/2000/svg"
   xmlns:sodipodi="http://sodipodi.sourceforge.net/DTD/sodipodi-0.dtd"
   xmlns:inkscape="http://www.inkscape.org/namespaces/inkscape"
   id="svg2"
   version="1.1"
   inkscape:version="0.91 r13725"
   xml:space="preserve"
   width="25"
   height="23.75"
   viewBox="0 0 25 23.75"
   sodipodi:docname="ic_skype.svg"><sodipodi:namedview
     pagecolor="#ffffff"
     bordercolor="#666666"
     borderopacity="1"
     objecttolerance="10"
     gridtolerance="10"
     guidetolerance="10"
     inkscape:pageopacity="0"
     inkscape:pageshadow="2"
     inkscape:window-width="1920"
     inkscape:window-height="1016"
     id="namedview4"
     showgrid="false"
     inkscape:zoom="13.075257"
     inkscape:cx="12.04125"
     inkscape:cy="12.415029"
     inkscape:window-x="0"
     inkscape:window-y="27"
     inkscape:window-maximized="1"
     inkscape:current-layer="g10" /><metadata
     id="metadata8"><rdf:RDF><cc:Work
         rdf:about=""><dc:format>image/svg+xml</dc:format><dc:type
           rdf:resource="http://purl.org/dc/dcmitype/StillImage" /><dc:title></dc:title></cc:Work></rdf:RDF></metadata><defs
     id="defs6"><clipPath
       id="clipPath18"
       clipPathUnits="userSpaceOnUse"><path
         inkscape:connector-curvature="0"
         id="path20"
         d="m 0,8.66016 200,0 0,180 -200,0 0,-180 z" /></clipPath></defs><g
     transform="matrix(1.25,0,0,-1.25,0,23.75)"
     inkscape:label="ink_ext_XXXXXX"
     inkscape:groupmode="layer"
     id="g10"><g
       style="fill:#209bd4;fill-opacity:1"
       transform="scale(0.1,0.1)"
       id="g12"><g
         style="fill:#209bd4;fill-opacity:1"
         id="g14"><g
           style="fill:#209bd4;fill-opacity:1"
           clip-path="url(#clipPath18)"
           id="g16"><path
             inkscape:connector-curvature="0"
             id="path22"
             style="fill:#209bd4;fill-opacity:1;fill-rule:nonzero;stroke:none"
             d="m 184.219,87.6797 c 2.73,-3.8281 4.801,-8.0078 6.25,-12.5781 1.441,-4.5703 2.191,-9.3008 2.191,-14.1797 0,-6.9922 -1.449,-13.5508 -4.219,-19.7227 -2.82,-6.1406 -6.679,-11.5703 -11.601,-16.25 -4.93,-4.6875 -10.668,-8.3281 -17.27,-10.9804 -6.601,-2.6602 -13.519,-3.98833 -20.898,-3.98833 -10.512,0 -19.922,2.50003 -28.281,7.46873 -2.34,-0.3594 -4.692,-0.5508 -7.032,-0.75 -2.379,-0.1484 -4.7301,-0.2304 -7.0699,-0.2304 -12.2696,0 -23.7891,2.2304 -34.5703,6.6015 C 50.9805,27.4805 41.5586,33.4609 33.4414,41.0781 25.3516,48.6602 18.9805,57.6406 14.4102,67.8711 9.76953,78.1094 7.46094,89.0898 7.46094,100.73 c 0,2.219 0.11719,4.372 0.34765,6.36 0.20313,2 0.51172,4.031 0.82032,6.019 C 2.85156,121.121 0,129.711 0,138.93 c 0,6.84 1.41016,13.32 4.21875,19.371 2.8125,6.097 6.64065,11.371 11.56255,15.859 4.9179,4.5 10.6992,8.051 17.2695,10.629 6.5586,2.621 13.5078,3.871 20.8984,3.871 5.3125,0 10.3125,-0.629 15.0313,-1.922 4.7304,-1.289 9.1797,-3.039 13.25,-5.386 2.3398,0.308 4.6797,0.546 7.0312,0.738 2.3789,0.121 4.7188,0.238 7.0274,0.238 12.3399,0 23.9099,-2.148 34.6909,-6.406 10.782,-4.262 20.231,-10.121 28.36,-17.543 8.082,-7.5 14.488,-16.129 19.14,-25.969 4.61,-9.851 6.911,-20.43 6.911,-31.68 0,-4.1792 -0.352,-8.5191 -1.172,-13.0503 z M 138.672,62.0898 c 3.789,4.961 5.668,10.8594 5.668,17.5821 0,5.3086 -1.059,9.7695 -3.129,13.3594 -2.191,3.6289 -5.231,6.6406 -9.18,9.0197 -3.633,2.347 -8.359,4.418 -14.101,6.289 -5.821,1.449 -11.95,2.89 -18.4808,4.34 l -7.1094,1.601 c -1.9101,0.43 -3.4296,0.778 -4.5703,1.09 -1.289,0.32 -2.4609,0.629 -3.5898,1.059 -1.0586,0.351 -2.1484,0.82 -3.2813,1.289 -2.1875,0.902 -3.9882,2.152 -5.4687,3.59 -1.0899,1.293 -1.6797,2.972 -1.6797,5.043 0,3.089 1.8398,5.82 5.4688,8.238 4.1015,2.269 9.1015,3.359 15.082,3.281 6.8712,0 11.7192,-1.012 14.4492,-3.043 3.281,-2.418 5.898,-5.387 7.73,-8.906 1.61,-2.582 3.25,-4.492 4.93,-5.781 1.602,-1.211 3.82,-1.871 6.641,-1.95 3.16,0 5.777,1.008 7.969,3.118 2.179,1.992 3.199,4.222 3.121,6.679 0,2.891 -0.782,5.742 -2.379,8.481 -1.602,2.582 -4.262,5.312 -7.934,8.203 -1.879,1.25 -3.906,2.379 -6.098,3.437 -2.218,1.051 -4.679,1.993 -7.378,2.77 -2.813,0.781 -5.782,1.371 -8.942,1.762 -3.129,0.39 -6.5311,0.589 -10.3592,0.589 -9.5313,0 -17.5703,-1.179 -24.1406,-3.519 -7.0704,-2.422 -12.3789,-5.781 -16.0118,-10.121 -3.5976,-4.102 -5.4296,-9.059 -5.4296,-14.879 0,-6.09 1.7617,-11.051 5.2304,-14.84 3.4805,-4.141 8.1719,-7.269 14.1406,-9.422 5.6719,-2.2576 12.8907,-4.2185 21.8008,-5.9295 3.3203,-0.789 6.211,-1.4492 8.7894,-1.9609 2.5,-0.5078 4.8,-1.0898 6.84,-1.6797 3.75,-1.0508 6.832,-2.7695 9.179,-5.2305 2.5,-2.1093 3.75,-4.8476 3.75,-8.2382 0,-4.6485 -2.269,-8.4414 -6.801,-11.3321 -4.257,-2.9297 -10.039,-4.3789 -17.3082,-4.2968 -5.8203,0 -10.039,0.6679 -12.7304,2.0273 -3.3203,1.5312 -5.7383,3.4414 -7.3789,5.7422 -2.0313,2.5781 -3.6797,5.5078 -4.961,8.6406 -1.1406,2.9688 -2.6992,5.1875 -4.7304,6.7188 -1.8789,1.5195 -4.0586,2.2617 -6.6407,2.2617 -3.3203,0 -6.0195,-0.9024 -8.1679,-2.7305 -2.1407,-2.0312 -3.1992,-4.4609 -3.1602,-7.1523 0,-4.7305 1.7578,-9.418 5.2305,-14.1407 3.3984,-4.8476 7.8203,-8.6289 13.2109,-11.3671 7.8477,-4.0625 17.7266,-6.1329 29.6094,-6.211 9.6799,0 18.3199,1.4492 25.8199,4.3008 7.379,3.2773 12.887,7.3398 16.481,12.2187 z" /></g></g></g></g></svg>